<svg xmlns="http://www.w3.org/2000/svg" version="1.1" xmlns:xlink="http://www.w3.org/1999/xlink" xmlns:svgjs="http://svgjs.dev/svgjs" width="256" height="256"><svg width="256" height="256" viewBox="0 0 256 256" fill="none" xmlns="http://www.w3.org/2000/svg">
<path d="M187.671 97.0195H136.627V43.778H187.671V97.0195Z" fill="#F45A2A"></path>
<path d="M248 97.0195H196.955V43.778H248V97.0195Z" fill="#26A5CC"></path>
<path d="M247.998 211.027H136.628V166.466H247.998V211.027Z" fill="#F6C956"></path>
<path d="M248 106.278H227.119V127.112H248V106.278Z" fill="#1D272A"></path>
<path d="M217.838 106.278H196.956V127.112H217.838V106.278Z" fill="#1D272A"></path>
<path d="M187.675 106.278H166.793V127.112H187.675V106.278Z" fill="#1D272A"></path>
<path d="M187.675 136.372H166.793V157.205H187.675V136.372Z" fill="#1D272A"></path>
<path d="M157.51 106.278H136.628V127.112H157.51V106.278Z" fill="#1D272A"></path>
<path d="M157.51 136.372H136.628V157.205H157.51V136.372Z" fill="#1D272A"></path>
<path d="M125.609 43.7783H11.9185V211.026H125.609V43.7783Z" fill="#ACE5B9"></path>
<path d="M248 136.372H227.119V157.205H248V136.372Z" fill="#1D272A"></path>
<path d="M217.838 136.372H196.956V157.205H217.838V136.372Z" fill="#1D272A"></path>
</svg><style>@media (prefers-color-scheme: light) { :root { filter: none; } }
@media (prefers-color-scheme: dark) { :root { filter: none; } }
</style></svg>