<svg width="117" height="26" viewBox="0 0 117 26" fill="none" xmlns="http://www.w3.org/2000/svg">
<path d="M84.7242 6.51477H81.4966V9.73491H84.7242V6.51477Z" fill="#1D272A"/>
<path d="M113.772 12.9551L113.772 9.73499L117 9.73499L117 12.9551L113.772 12.9551Z" fill="#1D272A"/>
<path d="M110.545 12.9551L110.545 9.73499L113.773 9.73499L113.773 12.9551L110.545 12.9551Z" fill="#1D272A"/>
<path d="M107.317 12.9551L107.317 9.73499L110.545 9.73499L110.545 12.9551L107.317 12.9551Z" fill="#1D272A"/>
<path d="M97.6348 16.1755L97.6348 12.9553L100.862 12.9553L100.862 16.1755L97.6348 16.1755Z" fill="#1D272A"/>
<path d="M97.6348 12.9551L97.6348 9.73499L100.862 9.73499L100.862 12.9551L97.6348 12.9551Z" fill="#1D272A"/>
<path d="M97.6348 19.3957L97.6348 16.1755L100.862 16.1755L100.862 19.3957L97.6348 19.3957Z" fill="#1D272A"/>
<path d="M97.6348 22.6155L97.6348 19.3954L100.862 19.3954L100.862 22.6155L97.6348 22.6155Z" fill="#1D272A"/>
<path d="M94.407 25.8357L94.407 22.6156L97.6346 22.6156L97.6346 25.8357L94.407 25.8357Z" fill="#1D272A"/>
<path d="M97.6348 25.8357L97.6348 22.6156L100.862 22.6156L100.862 25.8357L97.6348 25.8357Z" fill="#1D272A"/>
<path d="M91.1792 25.8357L91.1792 22.6156L94.4068 22.6156L94.4068 25.8357L91.1792 25.8357Z" fill="#1D272A"/>
<path d="M104.09 16.1755L104.09 12.9553L107.317 12.9553L107.317 16.1755L104.09 16.1755Z" fill="#1D272A"/>
<path d="M104.09 12.9551L104.09 9.73499L107.317 9.73499L107.317 12.9551L104.09 12.9551Z" fill="#1D272A"/>
<path d="M104.09 19.3957L104.09 16.1755L107.317 16.1755L107.317 19.3957L104.09 19.3957Z" fill="#1D272A"/>
<path d="M107.317 19.3957L107.317 16.1755L110.545 16.1755L110.545 19.3957L107.317 19.3957Z" fill="#1D272A"/>
<path d="M110.545 19.3957L110.545 16.1755L113.773 16.1755L113.773 19.3957L110.545 19.3957Z" fill="#1D272A"/>
<path d="M113.772 19.3957L113.772 16.1755L117 16.1755L117 19.3957L113.772 19.3957Z" fill="#1D272A"/>
<path d="M27.1653 8.30396H19.2756V0.0747108H27.1653V8.30396Z" fill="#F45A2A"/>
<path d="M36.4898 8.30396H28.6001V0.0747108H36.4898V8.30396Z" fill="#26A5CC"/>
<path d="M36.4894 25.9253H19.2756V19.0378H36.4894V25.9253Z" fill="#F6C956"/>
<path d="M36.4898 9.73499H33.2622V12.9551H36.4898V9.73499Z" fill="#1D272A"/>
<path d="M31.8277 9.73499H28.6001V12.9551H31.8277V9.73499Z" fill="#1D272A"/>
<path d="M27.1656 9.73499H23.938V12.9551H27.1656V9.73499Z" fill="#1D272A"/>
<path d="M27.1656 14.3862H23.938V17.6064H27.1656V14.3862Z" fill="#1D272A"/>
<path d="M22.5032 9.73499H19.2756V12.9551H22.5032V9.73499Z" fill="#1D272A"/>
<path d="M22.5032 14.3862H19.2756V17.6064H22.5032V14.3862Z" fill="#1D272A"/>
<path d="M17.5724 0.074707H0V25.9253H17.5724V0.074707Z" fill="#ACE5B9"/>
<path d="M36.4898 14.3862H33.2622V17.6064H36.4898V14.3862Z" fill="#1D272A"/>
<path d="M31.8277 14.3862H28.6001V17.6064H31.8277V14.3862Z" fill="#1D272A"/>
<path d="M113.772 22.6155L113.772 19.3954L117 19.3954L117 22.6155L113.772 22.6155Z" fill="#1D272A"/>
<path d="M110.545 25.8357L110.545 22.6156L113.773 22.6156L113.773 25.8357L110.545 25.8357Z" fill="#1D272A"/>
<path d="M113.772 25.8357L113.772 22.6156L117 22.6156L117 25.8357L113.772 25.8357Z" fill="#1D272A"/>
<path d="M107.317 25.8357L107.317 22.6156L110.545 22.6156L110.545 25.8357L107.317 25.8357Z" fill="#1D272A"/>
<path d="M104.09 25.8357L104.09 22.6156L107.317 22.6156L107.317 25.8357L104.09 25.8357Z" fill="#1D272A"/>
<path d="M87.9517 12.9551L87.9517 9.73499L91.1792 9.73499L91.1792 12.9551L87.9517 12.9551Z" fill="#1D272A"/>
<path d="M81.4966 16.1755L81.4966 12.9553L84.7242 12.9553L84.7242 16.1755L81.4966 16.1755Z" fill="#1D272A"/>
<path d="M81.4966 19.3957L81.4966 16.1755L84.7242 16.1755L84.7242 19.3957L81.4966 19.3957Z" fill="#1D272A"/>
<path d="M81.4966 22.6155L81.4966 19.3954L84.7242 19.3954L84.7242 22.6155L81.4966 22.6155Z" fill="#1D272A"/>
<path d="M87.9517 16.1755L87.9517 12.9553L91.1792 12.9553L91.1792 16.1755L87.9517 16.1755Z" fill="#1D272A"/>
<path d="M87.9517 19.3957L87.9517 16.1755L91.1792 16.1755L91.1792 19.3957L87.9517 19.3957Z" fill="#1D272A"/>
<path d="M87.9517 22.6155L87.9517 19.3954L91.1792 19.3954L91.1792 22.6155L87.9517 22.6155Z" fill="#1D272A"/>
<path d="M87.9517 25.8357L87.9517 22.6156L91.1792 22.6156L91.1792 25.8357L87.9517 25.8357Z" fill="#1D272A"/>
<path d="M81.4966 25.8357L81.4966 22.6156L84.7242 22.6156L84.7242 25.8357L81.4966 25.8357Z" fill="#1D272A"/>
<path d="M75.0413 16.1755L75.0413 12.9553L78.2688 12.9553L78.2688 16.1755L75.0413 16.1755Z" fill="#1D272A"/>
<path d="M71.814 12.9551L71.814 9.73499L75.0416 9.73499L75.0416 12.9551L71.814 12.9551Z" fill="#1D272A"/>
<path d="M68.5864 12.9551L68.5864 9.73499L71.814 9.73499L71.814 12.9551L68.5864 12.9551Z" fill="#1D272A"/>
<path d="M65.3586 12.9551L65.3586 9.73499L68.5862 9.73499L68.5862 12.9551L65.3586 12.9551Z" fill="#1D272A"/>
<path d="M65.3586 16.1755L65.3586 12.9553L68.5862 12.9553L68.5862 16.1755L65.3586 16.1755Z" fill="#1D272A"/>
<path d="M65.3586 19.3957L65.3586 16.1755L68.5862 16.1755L68.5862 19.3957L65.3586 19.3957Z" fill="#1D272A"/>
<path d="M65.3586 22.6155L65.3586 19.3954L68.5862 19.3954L68.5862 22.6155L65.3586 22.6155Z" fill="#1D272A"/>
<path d="M65.3586 25.8357L65.3586 22.6156L68.5862 22.6156L68.5862 25.8357L65.3586 25.8357Z" fill="#1D272A"/>
<path d="M75.0413 19.3957L75.0413 16.1755L78.2688 16.1755L78.2688 19.3957L75.0413 19.3957Z" fill="#1D272A"/>
<path d="M75.0413 22.6155L75.0413 19.3954L78.2688 19.3954L78.2688 22.6155L75.0413 22.6155Z" fill="#1D272A"/>
<path d="M75.0413 25.8357L75.0413 22.6156L78.2688 22.6156L78.2688 25.8357L75.0413 25.8357Z" fill="#1D272A"/>
<path d="M42.7656 12.9551L42.7656 9.73499L45.9932 9.73499L45.9932 12.9551L42.7656 12.9551Z" fill="#1D272A"/>
<path d="M42.7656 9.73491L42.7656 6.51477L45.9932 6.51477L45.9932 9.73491L42.7656 9.73491Z" fill="#1D272A"/>
<path d="M42.7656 6.51518L42.7656 3.29504L45.9932 3.29504L45.9932 6.51518L42.7656 6.51518Z" fill="#1D272A"/>
<path d="M42.7656 3.29485L42.7656 0.074707L45.9932 0.0747072L45.9932 3.29485L42.7656 3.29485Z" fill="#1D272A"/>
<path d="M49.2205 12.9551L49.2205 9.73499L52.448 9.73499L52.448 12.9551L49.2205 12.9551Z" fill="#1D272A"/>
<path d="M45.9932 12.9551L45.9932 9.73499L49.2208 9.73499L49.2208 12.9551L45.9932 12.9551Z" fill="#1D272A"/>
<path d="M52.4482 16.1755L52.4482 12.9553L55.6758 12.9553L55.6758 16.1755L52.4482 16.1755Z" fill="#1D272A"/>
<path d="M42.7656 16.1755L42.7656 12.9553L45.9932 12.9553L45.9932 16.1755L42.7656 16.1755Z" fill="#1D272A"/>
<path d="M52.4482 19.3957L52.4482 16.1755L55.6758 16.1755L55.6758 19.3957L52.4482 19.3957Z" fill="#1D272A"/>
<path d="M42.7656 19.3957L42.7656 16.1755L45.9932 16.1755L45.9932 19.3957L42.7656 19.3957Z" fill="#1D272A"/>
<path d="M52.4482 22.6155L52.4482 19.3954L55.6758 19.3954L55.6758 22.6155L52.4482 22.6155Z" fill="#1D272A"/>
<path d="M42.7656 22.6155L42.7656 19.3954L45.9932 19.3954L45.9932 22.6155L42.7656 22.6155Z" fill="#1D272A"/>
<path d="M52.4482 25.8357L52.4482 22.6156L55.6758 22.6156L55.6758 25.8357L52.4482 25.8357Z" fill="#1D272A"/>
<path d="M42.7656 25.8357L42.7656 22.6156L45.9932 22.6156L45.9932 25.8357L42.7656 25.8357Z" fill="#1D272A"/>
<path d="M45.9932 25.8357L45.9932 22.6156L49.2208 22.6156L49.2208 25.8357L45.9932 25.8357Z" fill="#1D272A"/>
<path d="M49.2205 25.8357L49.2205 22.6156L52.448 22.6156L52.448 25.8357L49.2205 25.8357Z" fill="#1D272A"/>
<path d="M62.1312 6.51477H58.9036V9.73491H62.1312V6.51477Z" fill="#1D272A"/>
<path d="M58.9036 16.1755L58.9036 12.9553L62.1312 12.9553L62.1312 16.1755L58.9036 16.1755Z" fill="#1D272A"/>
<path d="M58.9036 19.3957L58.9036 16.1755L62.1312 16.1755L62.1312 19.3957L58.9036 19.3957Z" fill="#1D272A"/>
<path d="M58.9036 22.6155L58.9036 19.3954L62.1312 19.3954L62.1312 22.6155L58.9036 22.6155Z" fill="#1D272A"/>
<path d="M58.9036 25.8357L58.9036 22.6156L62.1312 22.6156L62.1312 25.8357L58.9036 25.8357Z" fill="#1D272A"/>
</svg>
