<svg width="117" height="26" viewBox="0 0 117 26" fill="none" xmlns="http://www.w3.org/2000/svg">
<path d="M84.7242 6.51474H81.4966V9.73488H84.7242V6.51474Z" fill="white"/>
<path d="M113.772 12.9552L113.772 9.73505L117 9.73505L117 12.9552L113.772 12.9552Z" fill="white"/>
<path d="M110.545 12.9552L110.545 9.73505L113.773 9.73505L113.773 12.9552L110.545 12.9552Z" fill="white"/>
<path d="M107.317 12.9552L107.317 9.73505L110.545 9.73505L110.545 12.9552L107.317 12.9552Z" fill="white"/>
<path d="M97.6348 16.1755L97.6348 12.9553L100.862 12.9553L100.862 16.1755L97.6348 16.1755Z" fill="white"/>
<path d="M97.6348 12.9552L97.6348 9.73505L100.862 9.73505L100.862 12.9552L97.6348 12.9552Z" fill="white"/>
<path d="M97.6348 19.3956L97.6348 16.1755L100.862 16.1755L100.862 19.3956L97.6348 19.3956Z" fill="white"/>
<path d="M97.6348 22.6155L97.6348 19.3954L100.862 19.3954L100.862 22.6155L97.6348 22.6155Z" fill="white"/>
<path d="M94.407 25.8358L94.407 22.6157L97.6346 22.6157L97.6346 25.8358L94.407 25.8358Z" fill="white"/>
<path d="M97.6348 25.8358L97.6348 22.6157L100.862 22.6157L100.862 25.8358L97.6348 25.8358Z" fill="white"/>
<path d="M91.1792 25.8358L91.1792 22.6157L94.4068 22.6157L94.4068 25.8358L91.1792 25.8358Z" fill="white"/>
<path d="M104.09 16.1755L104.09 12.9553L107.317 12.9553L107.317 16.1755L104.09 16.1755Z" fill="white"/>
<path d="M104.09 12.9552L104.09 9.73505L107.317 9.73505L107.317 12.9552L104.09 12.9552Z" fill="white"/>
<path d="M104.09 19.3956L104.09 16.1755L107.317 16.1755L107.317 19.3956L104.09 19.3956Z" fill="white"/>
<path d="M107.317 19.3956L107.317 16.1755L110.545 16.1755L110.545 19.3956L107.317 19.3956Z" fill="white"/>
<path d="M110.545 19.3956L110.545 16.1755L113.773 16.1755L113.773 19.3956L110.545 19.3956Z" fill="white"/>
<path d="M113.772 19.3956L113.772 16.1755L117 16.1755L117 19.3956L113.772 19.3956Z" fill="white"/>
<path d="M27.1653 8.30396H19.2756V0.0747108H27.1653V8.30396Z" fill="#F45A2A"/>
<path d="M36.4898 8.30396H28.6001V0.0747108H36.4898V8.30396Z" fill="#26A5CC"/>
<path d="M36.4894 25.9253H19.2756V19.0377H36.4894V25.9253Z" fill="#F6C956"/>
<path d="M36.4898 9.73505H33.2622V12.9552H36.4898V9.73505Z" fill="white"/>
<path d="M31.8277 9.73505H28.6001V12.9552H31.8277V9.73505Z" fill="white"/>
<path d="M27.1656 9.73505H23.938V12.9552H27.1656V9.73505Z" fill="white"/>
<path d="M27.1656 14.3863H23.938V17.6064H27.1656V14.3863Z" fill="white"/>
<path d="M22.5032 9.73505H19.2756V12.9552H22.5032V9.73505Z" fill="white"/>
<path d="M22.5032 14.3863H19.2756V17.6064H22.5032V14.3863Z" fill="white"/>
<path d="M17.5724 0.074707H0V25.9253H17.5724V0.074707Z" fill="#ACE5B9"/>
<path d="M36.4898 14.3863H33.2622V17.6064H36.4898V14.3863Z" fill="white"/>
<path d="M31.8277 14.3863H28.6001V17.6064H31.8277V14.3863Z" fill="white"/>
<path d="M113.772 22.6155L113.772 19.3954L117 19.3954L117 22.6155L113.772 22.6155Z" fill="white"/>
<path d="M110.545 25.8358L110.545 22.6157L113.773 22.6157L113.773 25.8358L110.545 25.8358Z" fill="white"/>
<path d="M113.772 25.8358L113.772 22.6157L117 22.6157L117 25.8358L113.772 25.8358Z" fill="white"/>
<path d="M107.317 25.8358L107.317 22.6157L110.545 22.6157L110.545 25.8358L107.317 25.8358Z" fill="white"/>
<path d="M104.09 25.8358L104.09 22.6157L107.317 22.6157L107.317 25.8358L104.09 25.8358Z" fill="white"/>
<path d="M87.9517 12.9552L87.9517 9.73505L91.1792 9.73505L91.1792 12.9552L87.9517 12.9552Z" fill="white"/>
<path d="M81.4966 16.1755L81.4966 12.9553L84.7242 12.9553L84.7242 16.1755L81.4966 16.1755Z" fill="white"/>
<path d="M81.4966 19.3956L81.4966 16.1755L84.7242 16.1755L84.7242 19.3956L81.4966 19.3956Z" fill="white"/>
<path d="M81.4966 22.6155L81.4966 19.3954L84.7242 19.3954L84.7242 22.6155L81.4966 22.6155Z" fill="white"/>
<path d="M87.9517 16.1755L87.9517 12.9553L91.1792 12.9553L91.1792 16.1755L87.9517 16.1755Z" fill="white"/>
<path d="M87.9517 19.3956L87.9517 16.1755L91.1792 16.1755L91.1792 19.3956L87.9517 19.3956Z" fill="white"/>
<path d="M87.9517 22.6155L87.9517 19.3954L91.1792 19.3954L91.1792 22.6155L87.9517 22.6155Z" fill="white"/>
<path d="M87.9517 25.8358L87.9517 22.6157L91.1792 22.6157L91.1792 25.8358L87.9517 25.8358Z" fill="white"/>
<path d="M81.4966 25.8358L81.4966 22.6157L84.7242 22.6157L84.7242 25.8358L81.4966 25.8358Z" fill="white"/>
<path d="M75.0413 16.1755L75.0413 12.9553L78.2688 12.9553L78.2688 16.1755L75.0413 16.1755Z" fill="white"/>
<path d="M71.814 12.9552L71.814 9.73505L75.0416 9.73505L75.0416 12.9552L71.814 12.9552Z" fill="white"/>
<path d="M68.5864 12.9552L68.5864 9.73505L71.814 9.73505L71.814 12.9552L68.5864 12.9552Z" fill="white"/>
<path d="M65.3586 12.9552L65.3586 9.73505L68.5862 9.73505L68.5862 12.9552L65.3586 12.9552Z" fill="white"/>
<path d="M65.3586 16.1755L65.3586 12.9553L68.5862 12.9553L68.5862 16.1755L65.3586 16.1755Z" fill="white"/>
<path d="M65.3586 19.3956L65.3586 16.1755L68.5862 16.1755L68.5862 19.3956L65.3586 19.3956Z" fill="white"/>
<path d="M65.3586 22.6155L65.3586 19.3954L68.5862 19.3954L68.5862 22.6155L65.3586 22.6155Z" fill="white"/>
<path d="M65.3586 25.8358L65.3586 22.6157L68.5862 22.6157L68.5862 25.8358L65.3586 25.8358Z" fill="white"/>
<path d="M75.0413 19.3956L75.0413 16.1755L78.2688 16.1755L78.2688 19.3956L75.0413 19.3956Z" fill="white"/>
<path d="M75.0413 22.6155L75.0413 19.3954L78.2688 19.3954L78.2688 22.6155L75.0413 22.6155Z" fill="white"/>
<path d="M75.0413 25.8358L75.0413 22.6157L78.2688 22.6157L78.2688 25.8358L75.0413 25.8358Z" fill="white"/>
<path d="M42.7656 12.9552L42.7656 9.73505L45.9932 9.73505L45.9932 12.9552L42.7656 12.9552Z" fill="white"/>
<path d="M42.7656 9.73488L42.7656 6.51474L45.9932 6.51474L45.9932 9.73488L42.7656 9.73488Z" fill="white"/>
<path d="M42.7656 6.51515L42.7656 3.29501L45.9932 3.29501L45.9932 6.51515L42.7656 6.51515Z" fill="white"/>
<path d="M42.7656 3.29485L42.7656 0.074707L45.9932 0.0747072L45.9932 3.29485L42.7656 3.29485Z" fill="white"/>
<path d="M49.2205 12.9552L49.2205 9.73505L52.448 9.73505L52.448 12.9552L49.2205 12.9552Z" fill="white"/>
<path d="M45.9932 12.9552L45.9932 9.73505L49.2208 9.73505L49.2208 12.9552L45.9932 12.9552Z" fill="white"/>
<path d="M52.4482 16.1755L52.4482 12.9553L55.6758 12.9553L55.6758 16.1755L52.4482 16.1755Z" fill="white"/>
<path d="M42.7656 16.1755L42.7656 12.9553L45.9932 12.9553L45.9932 16.1755L42.7656 16.1755Z" fill="white"/>
<path d="M52.4482 19.3956L52.4482 16.1755L55.6758 16.1755L55.6758 19.3956L52.4482 19.3956Z" fill="white"/>
<path d="M42.7656 19.3956L42.7656 16.1755L45.9932 16.1755L45.9932 19.3956L42.7656 19.3956Z" fill="white"/>
<path d="M52.4482 22.6155L52.4482 19.3954L55.6758 19.3954L55.6758 22.6155L52.4482 22.6155Z" fill="white"/>
<path d="M42.7656 22.6155L42.7656 19.3954L45.9932 19.3954L45.9932 22.6155L42.7656 22.6155Z" fill="white"/>
<path d="M52.4482 25.8358L52.4482 22.6157L55.6758 22.6157L55.6758 25.8358L52.4482 25.8358Z" fill="white"/>
<path d="M42.7656 25.8358L42.7656 22.6157L45.9932 22.6157L45.9932 25.8358L42.7656 25.8358Z" fill="white"/>
<path d="M45.9932 25.8358L45.9932 22.6157L49.2208 22.6157L49.2208 25.8358L45.9932 25.8358Z" fill="white"/>
<path d="M49.2205 25.8358L49.2205 22.6157L52.448 22.6157L52.448 25.8358L49.2205 25.8358Z" fill="white"/>
<path d="M62.1312 6.51474H58.9036V9.73488H62.1312V6.51474Z" fill="white"/>
<path d="M58.9036 16.1755L58.9036 12.9553L62.1312 12.9553L62.1312 16.1755L58.9036 16.1755Z" fill="white"/>
<path d="M58.9036 19.3956L58.9036 16.1755L62.1312 16.1755L62.1312 19.3956L58.9036 19.3956Z" fill="white"/>
<path d="M58.9036 22.6155L58.9036 19.3954L62.1312 19.3954L62.1312 22.6155L58.9036 22.6155Z" fill="white"/>
<path d="M58.9036 25.8358L58.9036 22.6157L62.1312 22.6157L62.1312 25.8358L58.9036 25.8358Z" fill="white"/>
</svg>
