<svg width="117" height="26" viewBox="0 0 117 26" fill="none" xmlns="http://www.w3.org/2000/svg">
<path d="M84.7242 6.51474H81.4966V9.73488H84.7242V6.51474Z" fill="white"/>
<path d="M113.772 12.9552L113.772 9.73505L117 9.73505L117 12.9552L113.772 12.9552Z" fill="white"/>
<path d="M110.545 12.9552L110.545 9.73505L113.773 9.73505L113.773 12.9552L110.545 12.9552Z" fill="white"/>
<path d="M107.317 12.9552L107.317 9.73505L110.545 9.73505L110.545 12.9552L107.317 12.9552Z" fill="white"/>
<path d="M97.6348 16.1755L97.6348 12.9553L100.862 12.9553L100.862 16.1755L97.6348 16.1755Z" fill="white"/>
<path d="M97.6348 12.9552L97.6348 9.73505L100.862 9.73505L100.862 12.9552L97.6348 12.9552Z" fill="white"/>
<path d="M97.6348 19.3956L97.6348 16.1755L100.862 16.1755L100.862 19.3956L97.6348 19.3956Z" fill="white"/>
<path d="M97.6348 22.6155L97.6348 19.3954L100.862 19.3954L100.862 22.6155L97.6348 22.6155Z" fill="white"/>
<path d="M94.407 25.8358L94.407 22.6157L97.6346 22.6157L97.6346 25.8358L94.407 25.8358Z" fill="white"/>
<path d="M97.6348 25.8358L97.6348 22.6157L100.862 22.6157L100.862 25.8358L97.6348 25.8358Z" fill="white"/>
<path d="M91.1793 25.8358L91.1793 22.6157L94.4069 22.6157L94.4069 25.8358L91.1793 25.8358Z" fill="white"/>
<path d="M104.09 16.1755L104.09 12.9553L107.317 12.9553L107.317 16.1755L104.09 16.1755Z" fill="white"/>
<path d="M104.09 12.9552L104.09 9.73505L107.317 9.73505L107.317 12.9552L104.09 12.9552Z" fill="white"/>
<path d="M104.09 19.3956L104.09 16.1755L107.317 16.1755L107.317 19.3956L104.09 19.3956Z" fill="white"/>
<path d="M107.317 19.3956L107.317 16.1755L110.545 16.1755L110.545 19.3956L107.317 19.3956Z" fill="white"/>
<path d="M110.545 19.3956L110.545 16.1755L113.773 16.1755L113.773 19.3956L110.545 19.3956Z" fill="white"/>
<path d="M113.772 19.3956L113.772 16.1755L117 16.1755L117 19.3956L113.772 19.3956Z" fill="white"/>
<path d="M27.1654 8.30396H19.2757V0.0747108H27.1654V8.30396Z" fill="#F45A2A"/>
<path d="M36.4899 8.30396H28.6002V0.0747108H36.4899V8.30396Z" fill="#26A5CC"/>
<path d="M36.4895 25.9253H19.2757V19.0377H36.4895V25.9253Z" fill="#F6C956"/>
<path d="M36.4897 9.73505H33.2621V12.9552H36.4897V9.73505Z" fill="white"/>
<path d="M31.8278 9.73505H28.6002V12.9552H31.8278V9.73505Z" fill="white"/>
<path d="M27.1657 9.73505H23.9381V12.9552H27.1657V9.73505Z" fill="white"/>
<path d="M27.1657 14.3863H23.9381V17.6064H27.1657V14.3863Z" fill="white"/>
<path d="M22.5033 9.73505H19.2757V12.9552H22.5033V9.73505Z" fill="white"/>
<path d="M22.5033 14.3863H19.2757V17.6064H22.5033V14.3863Z" fill="white"/>
<path d="M17.5724 0.074707H0V25.9253H17.5724V0.074707Z" fill="#ACE5B9"/>
<path d="M36.4897 14.3863H33.2621V17.6064H36.4897V14.3863Z" fill="white"/>
<path d="M31.8278 14.3863H28.6002V17.6064H31.8278V14.3863Z" fill="white"/>
<path d="M113.772 22.6155L113.772 19.3954L117 19.3954L117 22.6155L113.772 22.6155Z" fill="white"/>
<path d="M110.545 25.8358L110.545 22.6157L113.773 22.6157L113.773 25.8358L110.545 25.8358Z" fill="white"/>
<path d="M113.772 25.8358L113.772 22.6157L117 22.6157L117 25.8358L113.772 25.8358Z" fill="white"/>
<path d="M107.317 25.8358L107.317 22.6157L110.545 22.6157L110.545 25.8358L107.317 25.8358Z" fill="white"/>
<path d="M104.09 25.8358L104.09 22.6157L107.317 22.6157L107.317 25.8358L104.09 25.8358Z" fill="white"/>
<path d="M87.9516 12.9552L87.9516 9.73505L91.1792 9.73505L91.1792 12.9552L87.9516 12.9552Z" fill="white"/>
<path d="M81.4966 16.1755L81.4966 12.9553L84.7242 12.9553L84.7242 16.1755L81.4966 16.1755Z" fill="white"/>
<path d="M81.4966 19.3956L81.4966 16.1755L84.7242 16.1755L84.7242 19.3956L81.4966 19.3956Z" fill="white"/>
<path d="M81.4966 22.6155L81.4966 19.3954L84.7242 19.3954L84.7242 22.6155L81.4966 22.6155Z" fill="white"/>
<path d="M87.9516 16.1755L87.9516 12.9553L91.1792 12.9553L91.1792 16.1755L87.9516 16.1755Z" fill="white"/>
<path d="M87.9516 19.3956L87.9516 16.1755L91.1792 16.1755L91.1792 19.3956L87.9516 19.3956Z" fill="white"/>
<path d="M87.9516 22.6155L87.9516 19.3954L91.1792 19.3954L91.1792 22.6155L87.9516 22.6155Z" fill="white"/>
<path d="M87.9516 25.8358L87.9516 22.6157L91.1792 22.6157L91.1792 25.8358L87.9516 25.8358Z" fill="white"/>
<path d="M81.4966 25.8358L81.4966 22.6157L84.7242 22.6157L84.7242 25.8358L81.4966 25.8358Z" fill="white"/>
<path d="M75.0412 16.1755L75.0412 12.9553L78.2688 12.9553L78.2688 16.1755L75.0412 16.1755Z" fill="white"/>
<path d="M71.814 12.9552L71.814 9.73505L75.0416 9.73505L75.0416 12.9552L71.814 12.9552Z" fill="white"/>
<path d="M68.5863 12.9552L68.5863 9.73505L71.8139 9.73505L71.8139 12.9552L68.5863 12.9552Z" fill="white"/>
<path d="M65.3586 12.9552L65.3586 9.73505L68.5862 9.73505L68.5862 12.9552L65.3586 12.9552Z" fill="white"/>
<path d="M65.3586 16.1755L65.3586 12.9553L68.5862 12.9553L68.5862 16.1755L65.3586 16.1755Z" fill="white"/>
<path d="M65.3586 19.3956L65.3586 16.1755L68.5862 16.1755L68.5862 19.3956L65.3586 19.3956Z" fill="white"/>
<path d="M65.3586 22.6155L65.3586 19.3954L68.5862 19.3954L68.5862 22.6155L65.3586 22.6155Z" fill="white"/>
<path d="M65.3586 25.8358L65.3586 22.6157L68.5862 22.6157L68.5862 25.8358L65.3586 25.8358Z" fill="white"/>
<path d="M75.0412 19.3956L75.0412 16.1755L78.2688 16.1755L78.2688 19.3956L75.0412 19.3956Z" fill="white"/>
<path d="M75.0412 22.6155L75.0412 19.3954L78.2688 19.3954L78.2688 22.6155L75.0412 22.6155Z" fill="white"/>
<path d="M75.0412 25.8358L75.0412 22.6157L78.2688 22.6157L78.2688 25.8358L75.0412 25.8358Z" fill="white"/>
<path d="M42.7657 12.9552L42.7657 9.73505L45.9933 9.73505L45.9933 12.9552L42.7657 12.9552Z" fill="white"/>
<path d="M42.7657 9.73488L42.7657 6.51474L45.9933 6.51474L45.9933 9.73488L42.7657 9.73488Z" fill="white"/>
<path d="M42.7657 6.51515L42.7657 3.29501L45.9933 3.29501L45.9933 6.51515L42.7657 6.51515Z" fill="white"/>
<path d="M42.7656 3.29485L42.7656 0.074707L45.9932 0.0747072L45.9932 3.29485L42.7656 3.29485Z" fill="white"/>
<path d="M49.2206 12.9552L49.2206 9.73505L52.4482 9.73505L52.4482 12.9552L49.2206 12.9552Z" fill="white"/>
<path d="M45.9932 12.9552L45.9932 9.73505L49.2208 9.73505L49.2208 12.9552L45.9932 12.9552Z" fill="white"/>
<path d="M52.4482 16.1755L52.4482 12.9553L55.6758 12.9553L55.6758 16.1755L52.4482 16.1755Z" fill="white"/>
<path d="M42.7657 16.1755L42.7657 12.9553L45.9933 12.9553L45.9933 16.1755L42.7657 16.1755Z" fill="white"/>
<path d="M52.4482 19.3956L52.4482 16.1755L55.6758 16.1755L55.6758 19.3956L52.4482 19.3956Z" fill="white"/>
<path d="M42.7657 19.3956L42.7657 16.1755L45.9933 16.1755L45.9933 19.3956L42.7657 19.3956Z" fill="white"/>
<path d="M52.4482 22.6155L52.4482 19.3954L55.6758 19.3954L55.6758 22.6155L52.4482 22.6155Z" fill="white"/>
<path d="M42.7657 22.6155L42.7657 19.3954L45.9933 19.3954L45.9933 22.6155L42.7657 22.6155Z" fill="white"/>
<path d="M52.4482 25.8358L52.4482 22.6157L55.6758 22.6157L55.6758 25.8358L52.4482 25.8358Z" fill="white"/>
<path d="M42.7657 25.8358L42.7657 22.6157L45.9933 22.6157L45.9933 25.8358L42.7657 25.8358Z" fill="white"/>
<path d="M45.9932 25.8358L45.9932 22.6157L49.2208 22.6157L49.2208 25.8358L45.9932 25.8358Z" fill="white"/>
<path d="M49.2206 25.8358L49.2206 22.6157L52.4482 22.6157L52.4482 25.8358L49.2206 25.8358Z" fill="white"/>
<path d="M62.1312 6.51474H58.9036V9.73488H62.1312V6.51474Z" fill="white"/>
<path d="M58.9036 16.1755L58.9036 12.9553L62.1312 12.9553L62.1312 16.1755L58.9036 16.1755Z" fill="white"/>
<path d="M58.9036 19.3956L58.9036 16.1755L62.1312 16.1755L62.1312 19.3956L58.9036 19.3956Z" fill="white"/>
<path d="M58.9036 22.6155L58.9036 19.3954L62.1312 19.3954L62.1312 22.6155L58.9036 22.6155Z" fill="white"/>
<path d="M58.9036 25.8358L58.9036 22.6157L62.1312 22.6157L62.1312 25.8358L58.9036 25.8358Z" fill="white"/>
</svg>
