<svg width="453" height="100" viewBox="0 0 453 100" fill="none" xmlns="http://www.w3.org/2000/svg">
<path d="M105.086 31.834H74.5657V7.43866e-05H105.086V31.834Z" fill="#F45A2A"/>
<path d="M141.156 31.834H110.636V7.43866e-05H141.156V31.834Z" fill="#26A5CC"/>
<path d="M141.155 100H74.5657V73.3565H141.155V100Z" fill="#F6C956"/>
<path d="M141.157 37.3698H128.671V49.8265H141.157V37.3698Z" fill="#F7F6EC"/>
<path d="M123.122 37.3698H110.636V49.8265H123.122V37.3698Z" fill="#F7F6EC"/>
<path d="M105.087 37.3698H92.6013V49.8265H105.087V37.3698Z" fill="#F7F6EC"/>
<path d="M105.087 55.3625H92.6013V67.8193H105.087V55.3625Z" fill="#F7F6EC"/>
<path d="M87.0512 37.3698H74.5657V49.8265H87.0512V37.3698Z" fill="#F7F6EC"/>
<path d="M87.0512 55.3625H74.5657V67.8193H87.0512V55.3625Z" fill="#F7F6EC"/>
<path d="M67.977 0H0V100H67.977V0Z" fill="#ACE5B9"/>
<path d="M141.157 55.3625H128.671V67.8193H141.157V55.3625Z" fill="#F7F6EC"/>
<path d="M123.122 55.3625H110.636V67.8193H123.122V55.3625Z" fill="#F7F6EC"/>
<path d="M327.746 24.9127H315.26V37.3694H327.746V24.9127Z" fill="#F7F6EC"/>
<path d="M240.347 24.9127H227.862V37.3694H240.347V24.9127Z" fill="#F7F6EC"/>
<path d="M227.862 49.8274H240.347V99.6541H227.862V49.8274Z" fill="#F7F6EC"/>
<path d="M165.434 0V12.4567V37.3694V49.8265V62.284V87.1966V99.6537H202.89H215.376V87.1966V62.284V49.8272L202.889 49.8265L202.89 62.284V87.1966H177.92V62.284L177.919 49.8265H202.889V37.3697L177.92 37.3694V12.4567V0H165.434Z" fill="#F7F6EC"/>
<path d="M290.289 49.8272L290.29 37.3697H265.319H252.833V49.8265V62.284V87.1966V99.6537H265.318V87.1966V62.284L265.319 49.8265L290.289 49.8272Z" fill="#F7F6EC"/>
<path d="M290.289 49.8272V62.284V87.1966V99.6537H302.774V87.1966V62.284V49.8272H290.289Z" fill="#F7F6EC"/>
<path d="M315.26 49.8272V62.284V87.1966V99.6537H327.746V87.1966V62.284V49.8272H315.26Z" fill="#F7F6EC"/>
<path d="M377.689 62.284V49.8272V37.3697H390.175V49.8272V62.284V87.1966V99.6537H377.688H365.203H340.231V87.1969V62.284V49.8265V37.3697H352.717V49.8265V62.284L352.717 87.1969H365.203L377.689 87.1966V62.284Z" fill="#F7F6EC"/>
<path d="M452.602 49.8265V37.3697H415.145H402.659V49.8272V62.284V74.741H415.145H440.116L440.116 87.1966L415.145 87.1969H402.659V99.6537H415.145H452.602V87.1966V62.2843L415.145 62.284L415.145 49.8265H452.602Z" fill="#F7F6EC"/>
</svg>
